<?xml version="1.0" standalone="no"?>
<!DOCTYPE svg PUBLIC "-//W3C//DTD SVG 20010904//EN"
 "http://www.w3.org/TR/2001/REC-SVG-20010904/DTD/svg10.dtd">
<svg version="1.0" xmlns="http://www.w3.org/2000/svg"
 width="192" height="192" viewBox="0 0 1280.000000 1189.000000"
 preserveAspectRatio="xMidYMid meet">
<g transform="translate(0.000000,1189.000000) scale(0.100000,-0.100000)"
fill="#000000" stroke="none">
<path d="M7022 11754 c-12 -8 -29 -32 -38 -52 -35 -82 -177 -441 -264 -667
-128 -333 -214 -531 -345 -805 l-113 -235 -51 -365 c-41 -293 -242 -1831 -293
-2238 -15 -126 -14 -125 -113 -107 -44 7 -120 18 -169 23 -50 6 -94 16 -101
23 -6 8 -64 165 -128 349 -63 184 -176 508 -250 720 -74 212 -164 477 -198
590 -58 185 -71 217 -137 329 -40 68 -159 283 -264 479 -204 381 -284 520
-354 619 -28 39 -118 127 -246 240 -112 98 -232 206 -269 241 -36 34 -69 62
-72 62 -11 0 37 -102 93 -195 67 -115 134 -215 235 -350 68 -92 95 -141 165
-300 183 -414 383 -778 549 -999 46 -61 87 -120 92 -131 33 -75 417 -1640 406
-1651 -3 -3 -52 -10 -109 -14 -229 -19 -330 -41 -456 -100 -46 -22 -88 -40
-92 -40 -4 0 -15 21 -25 48 -30 82 -75 141 -165 217 -110 93 -181 170 -354
383 -131 161 -141 170 -180 176 -74 12 -218 65 -351 129 -171 84 -347 185
-765 442 -190 117 -379 230 -420 253 l-75 40 -790 66 c-434 36 -801 66 -814
66 -34 0 -12 -23 54 -55 42 -21 76 -28 171 -35 147 -11 347 -36 749 -94 171
-25 374 -52 453 -61 140 -16 145 -18 225 -64 199 -115 315 -193 582 -390 369
-271 466 -352 665 -551 115 -115 320 -302 497 -454 167 -143 303 -267 303
-275 0 -9 -18 -31 -40 -49 -47 -39 -27 -47 -240 91 -442 287 -645 391 -842
431 -153 32 -150 33 -343 -110 -882 -651 -1482 -984 -2298 -1274 -89 -32 -152
-60 -157 -70 -45 -85 -120 -1338 -120 -2014 0 -291 0 -299 19 -282 10 9 32 45
50 79 40 80 57 195 70 482 6 121 24 393 41 605 16 212 30 430 31 485 0 55 4
122 7 150 l7 49 120 51 c487 208 852 428 1625 980 327 234 807 560 883 600
l38 20 85 -44 c103 -52 250 -151 457 -304 84 -62 180 -132 215 -156 34 -25 61
-48 60 -52 -2 -4 -41 -51 -88 -104 -272 -310 -461 -740 -485 -1105 -12 -178
20 -546 66 -755 46 -213 129 -421 219 -556 259 -385 719 -434 1356 -146 198
90 488 254 640 362 189 135 413 400 596 706 41 70 77 119 86 119 8 0 64 -19
125 -42 l109 -42 -6 -30 c-11 -51 -100 -298 -266 -736 -185 -486 -260 -702
-301 -861 -34 -136 -46 -253 -31 -298 10 -28 5 -48 -37 -169 -80 -225 -176
-473 -441 -1142 -225 -568 -446 -1142 -465 -1210 -31 -112 183 316 442 885
272 596 670 1519 707 1640 3 11 20 28 37 37 86 50 164 356 329 1308 45 256 92
516 106 579 13 63 21 118 17 122 -5 3 -60 23 -123 44 -63 21 -120 42 -127 47
-10 8 -8 19 7 49 11 21 25 39 31 39 6 0 122 -36 257 -79 136 -44 279 -89 319
-100 l72 -21 84 -128 c120 -180 229 -380 449 -822 311 -629 397 -770 464 -770
30 0 76 -69 150 -225 86 -183 180 -466 249 -753 9 -40 19 -71 21 -69 7 7 -15
191 -41 349 -43 258 -123 536 -224 776 -28 69 -29 75 -15 97 31 48 -7 122
-266 515 -384 584 -545 890 -636 1205 -19 66 -38 123 -43 128 -14 14 -208 45
-456 73 -137 15 -260 31 -272 35 -20 7 -21 11 -12 39 6 17 19 34 28 39 42 23
1665 631 1683 631 25 0 683 -136 1068 -221 620 -136 1149 -284 1476 -410 97
-38 106 -44 180 -122 237 -247 396 -461 528 -707 25 -47 46 -76 46 -65 0 35
-77 250 -128 358 -85 180 -205 374 -367 593 -67 91 -97 121 -163 167 l-80 57
-242 45 c-659 124 -1066 230 -1425 374 -125 50 -340 154 -433 208 l-44 26
-212 -6 -211 -7 -380 -115 c-897 -274 -1137 -345 -1146 -339 -18 11 -8 46 22
73 17 16 36 39 43 52 7 13 159 211 337 439 558 712 946 1222 1183 1555 71 99
131 183 135 188 4 4 54 16 112 28 170 32 304 67 474 120 394 125 666 248 1365
619 454 241 800 411 958 471 26 10 -21 52 717 -649 208 -199 381 -359 384
-357 14 14 -164 240 -378 480 -152 170 -661 685 -677 685 -16 0 -289 -115
-774 -325 -1107 -481 -1624 -663 -2260 -798 l-65 -13 -49 -75 c-286 -431 -707
-970 -1130 -1449 -209 -237 -449 -491 -460 -487 -6 2 -28 34 -49 72 -77 141
-173 238 -308 315 -60 34 -64 38 -67 75 -2 31 187 2423 214 2705 6 55 14 78
59 150 208 335 353 683 475 1135 41 150 54 185 64 174 2 -2 41 -247 85 -544
45 -297 84 -547 88 -555 24 -57 42 468 24 710 -22 298 -94 735 -128 772 -20
22 -51 23 -81 2z"/>
</g>
</svg>
